<svg width="308.7270468663906" height="304.915625" viewBox="0 0 310 306.1728627583043"
    class="looka-1j8o68f">
    <defs id="SvgjsDefs1637">
        <linearGradient id="SvgjsLinearGradient1644">
            <stop id="SvgjsStop1645" stop-color="#905e26" offset="0"></stop>
            <stop id="SvgjsStop1646" stop-color="#f5ec9b" offset="0.5"></stop>
            <stop id="SvgjsStop1647" stop-color="#905e26" offset="1"></stop>
        </linearGradient>
        <linearGradient id="SvgjsLinearGradient1648">
            <stop id="SvgjsStop1649" stop-color="#905e26" offset="0"></stop>
            <stop id="SvgjsStop1650" stop-color="#f5ec9b" offset="0.5"></stop>
            <stop id="SvgjsStop1651" stop-color="#905e26" offset="1"></stop>
        </linearGradient>
        <linearGradient id="SvgjsLinearGradient1652">
            <stop id="SvgjsStop1653" stop-color="#905e26" offset="0"></stop>
            <stop id="SvgjsStop1654" stop-color="#f5ec9b" offset="0.5"></stop>
            <stop id="SvgjsStop1655" stop-color="#905e26" offset="1"></stop>
        </linearGradient>
    </defs>
    <g id="SvgjsG1638" featurekey="rootContainer"
        transform="matrix(2.9388568246550153,0,0,2.9388568246550153,-0.11025446391769686,0.08425770368723878)"
        fill="url(#SvgjsLinearGradient1644)">
        <path xmlns="http://www.w3.org/2000/svg"
            d="M104.6 41.3a52.2 52.2 0 0 0-3.5-11.2A51.1 51.1 0 0 0 44.3 1a49.6 49.6 0 0 0-5.7 1.5 49.1 49.1 0 0 0-7.9 2.7A51.6 51.6 0 0 0 6.3 77a53.7 53.7 0 0 0 4.1 6.4 57 57 0 0 0 5 5.7 51.7 51.7 0 0 0 55.3 11.5l3.3-1.4 3-1.5a50.9 50.9 0 0 0 5.8-3.8l2.7-2.1 1.2-1.1 1.1-.9 2-1.8.7-.6.6-.7 1.8-2a48.5 48.5 0 0 0 5.9-8.3 50.4 50.4 0 0 0 5.6-14.7 51.6 51.6 0 0 0 .2-20.4zM87.1 88.6l-1.2 1.1-1.2 1.1-2.6 2.1a49.5 49.5 0 0 1-5.7 3.6l-3 1.5-3.2 1.3-4.9 1.6h-.5a50.9 50.9 0 0 1-20.3.1 51.8 51.8 0 0 1-11.1-3.6A50.5 50.5 0 0 1 22.9 91a52 52 0 0 1-9.1-9.4 50.3 50.3 0 0 1-3.7-5.7c-.6-1-1.1-2-1.6-3.1s-1-2.1-1.3-3.2a50.6 50.6 0 0 1 8.6-50.8l.8-.8.5-.6.6-.6 1.2-1.1 2.4-2.1A50.5 50.5 0 0 1 62.4 3.2a48.5 48.5 0 0 1 14.7 5.2 47 47 0 0 1 8.3 5.8l2 1.8.7.6.6.7 1.8 2a49.7 49.7 0 0 1 11.3 22.9 50.8 50.8 0 0 1-.1 20.2 51.6 51.6 0 0 1-3.6 11 50.2 50.2 0 0 1-6.6 10.5l-2.1 2.4zm-44.9 13a50.1 50.1 0 0 1-13.7-5 51.8 51.8 0 0 1-6.2-4 55.2 55.2 0 0 1-5.5-4.8 49.9 49.9 0 0 1-11-53.2c.4-1.1.9-2.1 1.3-3.1l.6-1.3a50.2 50.2 0 0 0-3.4 11 51.3 51.3 0 0 0 2.4 28.5c.4 1.1.9 2.2 1.4 3.2s1 2.1 1.6 3.1a50.6 50.6 0 0 0 3.7 5.8 51.5 51.5 0 0 0 9.2 9.5 50.9 50.9 0 0 0 10.7 6.5 51 51 0 0 0 28.7 3.9 50.3 50.3 0 0 1-19.8-.1zm61.9-39.9a50.2 50.2 0 0 1-5.5 14.7 48.4 48.4 0 0 1-5.8 8.3l-1.8 2-.6.7-.7.6-1.9 1.7h.2l2.3-2.4 2.1-2.5A51.3 51.3 0 0 0 98.9 74a51.4 51.4 0 0 0 3.2-31.6 49.6 49.6 0 0 0-2.5-8.2 49.4 49.4 0 0 0-3.1-6.5 48.7 48.7 0 0 0-5.9-8.3l-1.8-2-.6-.7-.7-.6-2-1.8A49.9 49.9 0 0 0 77.3 8a49.3 49.3 0 0 0-6.5-3.2 49.8 49.8 0 0 0-8.2-2.6A52.2 52.2 0 0 0 49.9 1a50.8 50.8 0 0 1 22.7 3.2l3.2 1.3 3.1 1.6a50.1 50.1 0 0 1 5.7 3.7l2.6 2.1 1.2 1.1 1.2 1.1 2.3 2.3 2.1 2.4a50.4 50.4 0 0 1 6.5 10.5 51.6 51.6 0 0 1 3.6 11 51.1 51.1 0 0 1 0 20.3z"></path>
    </g>
    <g id="SvgjsG1639" featurekey="symbolFeature-0"
        transform="matrix(0.8146309387224406,0,0,0.8146309387224406,114.26683168901424,78.60930117578035)"
        fill="url(#SvgjsLinearGradient1648)">
        <g xmlns="http://www.w3.org/2000/svg">
            <path
                d="M24.2,64.3L8.8,79.8c0,0.2,0.1,0.4,0.1,0.7c0,2.2-1.8,4-4,4s-4-1.8-4-4s1.8-4,4-4c0.2,0,0.5,0,0.7,0.1l16.4-16.4   C22.5,61.6,23.3,63,24.2,64.3z M66.4,39.9l-8,8c-1.5-0.6-3.1-0.6-4.6,0l-4.3-4.3c0.9-2.2,0.5-4.8-1.3-6.6c-2.4-2.4-6.2-2.4-8.6,0   c-1.8,1.8-2.2,4.4-1.3,6.6l-6.2,6.2c0.2,1.8,0.7,3.5,1.5,5.1l8-8c1.5,0.6,3.1,0.6,4.6,0l4.3,4.3c-0.9,2.2-0.5,4.8,1.3,6.6   c2.4,2.4,6.2,2.4,8.6,0c1.8-1.8,2.2-4.4,1.3-6.6l6.1-6.1C67.6,43.3,67.1,41.5,66.4,39.9z M91.3,83.4c1.4,1.4,1.4,3.8,0,5.2   c-0.7,0.7-1.7,1.1-2.6,1.1c-0.9,0-1.9-0.4-2.6-1.1L70.6,73.2l-1.3-1.3L68.4,71l0,0l0,0l1-1l-2.2-2.2C62.2,71.9,56.1,74,50,74   c-6.8,0-13.6-2.6-18.9-7.8c-10.4-10.4-10.4-27.3,0-37.7c5.2-5.2,12-7.8,18.9-7.8c6.8,0,13.6,2.6,18.9,7.8   c9.9,9.9,10.4,25.6,1.5,36.1l2.2,2.2l1-1l0.4,0.4l0,0l0.4,0.4l1.3,1.3L91.3,83.4C91.2,83.4,91.2,83.4,91.3,83.4z M65.7,31.6   c-4.3-4.3-10-6.5-15.7-6.5c-5.7,0-11.4,2.2-15.7,6.5c-8.7,8.7-8.7,22.8,0,31.4c4.3,4.3,10,6.5,15.7,6.5c5.7,0,11.4-2.2,15.7-6.5   C74.4,54.4,74.4,40.3,65.7,31.6z M95.2,10.3c-2.2,0-4,1.8-4,4c0,0.2,0,0.5,0.1,0.7L75.8,30.5c0.9,1.4,1.7,2.8,2.3,4.3l16.4-16.4   c0.2,0,0.4,0,0.6,0c2.2,0,4-1.8,4-4C99.2,12.1,97.4,10.3,95.2,10.3z"></path>
        </g>
    </g>
    <g id="SvgjsG1640" featurekey="nameFeature-0"
        transform="matrix(1.2819690242982582,0,0,1.2819690242982582,53.25652256708351,158.20601300513133)"
        fill="url(#SvgjsLinearGradient1652)">
        <path
            d="M12.36 40.56 c-6.48 0 -11 -4.28 -11 -10.68 c0 -6.04 4.24 -10.68 10.6 -10.68 c6.64 0 10.44 4.6 10.44 10.4 c0 0.64 0 1.24 -0.12 1.88 l-15.72 0 c0.36 2.6 2.2 4.6 5.88 4.6 c2.56 0 4.12 -1.16 4.92 -2.68 l4.76 1.4 c-1.16 2.64 -4.44 5.76 -9.76 5.76 z M6.56 28.16 l10.68 0 c-0.24 -2.48 -2.16 -4.48 -5.32 -4.48 c-3.08 0 -5.08 2.16 -5.36 4.48 z M23.85 40 l0 -29.2 l5.28 0 l0 29.2 l-5.28 0 z M31.78 40 l0 -29.2 l5.28 0 l0 29.2 l-5.28 0 z M42.39 16.92 c-1.76 0 -3.16 -1.36 -3.16 -3.12 c0 -1.68 1.4 -3.04 3.16 -3.04 s3.16 1.36 3.16 3.04 c0 1.76 -1.4 3.12 -3.16 3.12 z M39.67 40 l0 -20.24 l5.32 0 l0 20.24 l-5.32 0 z M59.559999999999995 19.2 c5.6 0 9.96 4.52 9.96 10.68 c0 6.12 -4.36 10.68 -9.96 10.68 c-2.88 0 -5.08 -1.2 -6.56 -3.04 l0 10.88 l-5.28 0 l0 -28.64 l5.28 0 l0 2.44 c1.48 -1.84 3.68 -3 6.56 -3 z M58.64 35.84 c3.32 0 5.68 -2.48 5.68 -6 c0 -3.48 -2.36 -5.92 -5.68 -5.92 c-3.2 0 -5.76 2.44 -5.76 5.92 c0 3.52 2.56 6 5.76 6 z M78.93 40.56 c-5 0 -8.84 -2.96 -9.84 -6.24 l4.76 -1.4 c0.68 1.92 2.6 3.36 5.28 3.36 c2.04 0 3.36 -0.96 3.36 -2.08 c0 -1 -0.76 -1.56 -2.24 -2 l-5.16 -1.52 c-2.88 -0.84 -5 -2.52 -5 -5.4 c0 -3.4 3.68 -6.08 8.12 -6.08 c4.36 0 7.68 2.08 8.96 5.12 l-4.68 1.36 c-0.72 -1.28 -2.2 -2.36 -4.32 -2.36 c-1.64 0 -2.88 0.88 -2.88 1.84 c0 0.8 0.56 1.28 1.68 1.6 l5.04 1.44 c3.04 0.88 5.68 2.12 5.68 5.76 c0 3.8 -3.6 6.6 -8.76 6.6 z M97.14000000000001 40.56 c-5 0 -8.84 -2.96 -9.84 -6.24 l4.76 -1.4 c0.68 1.92 2.6 3.36 5.28 3.36 c2.04 0 3.36 -0.96 3.36 -2.08 c0 -1 -0.76 -1.56 -2.24 -2 l-5.16 -1.52 c-2.88 -0.84 -5 -2.52 -5 -5.4 c0 -3.4 3.68 -6.08 8.12 -6.08 c4.36 0 7.68 2.08 8.96 5.12 l-4.68 1.36 c-0.72 -1.28 -2.2 -2.36 -4.32 -2.36 c-1.64 0 -2.88 0.88 -2.88 1.84 c0 0.8 0.56 1.28 1.68 1.6 l5.04 1.44 c3.04 0.88 5.68 2.12 5.68 5.76 c0 3.8 -3.6 6.6 -8.76 6.6 z M119.19000000000003 19.2 c5.28 0 7.96 3.56 7.96 8.96 l0 11.84 l-5.28 0 l0 -10.84 c0 -3.08 -1.4 -5.04 -4.32 -5.04 c-2.96 0 -4.88 2.32 -4.88 5.88 l0 10 l-5.28 0 l0 -29.2 l5.28 0 l0 11.52 c1.4 -1.8 3.6 -3.12 6.52 -3.12 z M132.28000000000003 16.92 c-1.76 0 -3.16 -1.36 -3.16 -3.12 c0 -1.68 1.4 -3.04 3.16 -3.04 s3.16 1.36 3.16 3.04 c0 1.76 -1.4 3.12 -3.16 3.12 z M129.56000000000003 40 l0 -20.24 l5.32 0 l0 20.24 l-5.32 0 z M149.41000000000003 19.2 c5.28 0 7.96 3.56 7.96 8.96 l0 11.84 l-5.28 0 l0 -10.84 c0 -3.08 -1.4 -5.04 -4.32 -5.04 c-2.96 0 -4.88 2.32 -4.88 5.88 l0 10 l-5.28 0 l0 -20.24 l5.28 0 l0 2.56 c1.4 -1.8 3.6 -3.12 6.52 -3.12 z"></path>
    </g>
</svg>